<svg xmlns="http://www.w3.org/2000/svg" xml:space="preserve" width="151.91" height="152.117" fill-rule="evenodd" clip-rule="evenodd" image-rendering="optimizeQuality" shape-rendering="geometricPrecision" text-rendering="geometricPrecision" viewBox="0 0 606.22 607.05"><path fill="#2b2b2a" d="M241.33 581.27c-.2-1.17-.59-2.37-1.12-3.59h-54.85c-.41.39-.76.73-1.05 1.04.08.06.16.11.24.17 3.11 2.18 7.8 5.46 10.21 11.57.77 1.95 1.24 3.73 1.5 5.34h30.52c1.48-1.95 3.94-3.88 7.98-5.32 6.81-2.43 7.08-6.2 6.57-9.22zm30.21-3.59a44.4 44.4 0 0 1-1.02 7.32c-.83 3.75-2.29 7.41-4.23 10.8h339.93v-18.12zm-35.74-46.15c-.75-19.71-46.24 11.19-50.98 14.36-7.64 5.1-2.22-18.47-1.58-20.26 3.71-10.41-5.01-23.89.53-33.05 1.27-2.09 10.58-22.19-.73-18.11-7.16 2.58-8.49 18.45-13.11 19.29-3.83.7-11.42-47.55-11.43-51.6-.02-9.87-4.17-25.9 4.87-33.36 3.95-3.25 19.27-9.11 4.8-13.03-12.13-3.28 9.43-16.79 16.87-15.32 10.14 2.02-.71 14.3 4.08 19.78 10.33 11.83 31.45-26.43-2.88-29.68-.05-.01-.23-.03-.6-.06-.24 0-.34.01-.38.01-44.9.41-45.5 71.98-32.96 101.22 2.09 4.87 11.67 29.95 7.8 32.74-2.93 2.11-16.41-3.58-21.53-2.68-33.76 5.95 12.6 20.44 19.44 28.35 29.01 33.53-52.75 87.41-73.89 27.77-.73-2.05-.46-22.27-8.72-15.29-8.33 7.03-3.12 22.72.18 30.83 8.56 21 37.62 33.42 59.11 25.99 11.71-4.05 29.92-12.34 39.76-.02 6.66 8.33 18.93 6.86 13.72-6.35-4.37-11.1-20.89-9.06-6.23-21.85 9.62-8.4 19.38-9.82 30.7-14.16 22.96-8.82 52.61 30.12 24.52 40.12-12.15 4.32-1.14 12.47 7.51 9.06 9.29-3.65 16.83-13.2 18.94-22.76 6.81-30.92-26.96-30.13-27.79-51.94zM24.41 418.19c.69.92 1.66 2.24 2.5 3.22 2.27-1.7 4.36-3.67 6.22-5.85v-49.84c-1.22-.82-2.49-1.32-3.79-1.32-4.75 0-10.49 5.59-14.29 9.29l-.03.03v35.74c.16.06.31.12.46.18 3.77 1.59 6.4 5.13 8.93 8.54zm-9.4-80.23c5.96-2.83 12.18-4.5 17.33-4.5.27 0 .52.01.79.02V0H15.01v324.12c-.08-.98-.04-.07 0 .53v13.32zm46.44 185.86c-3.59-7.69-12.05-4.77-18.39-6.1-24.23-5.05-30.31-39.63-16.87-57.38 11.1-14.67 41.52-29.51 54.1-7.79 9.26 15.98 20.34 42.99 25.11 9.84.65-4.53-6.18-20.66 4.24-17.22 9.18 3.03 17.7 6.86 27.17 9.42 8.54 2.3 3.59-11.27-5.13-11.8-8.95-.53-10.6-8.7-3.85-14.05 13.55-10.74-7.41-6.12-12.2-4.94-9.29 2.29-17.2-1.79-26.09-2.03-12.86-.36-41.47 12.9-21.7-8.53 5.8-6.28 22.46-35.3 9.72-41.91-6.61-3.42-12.79 4.14-14.95-7.72-2.32-12.76-16.15-20.15-27.2-22.73-13.35-3.13-47.19 17.28-31.2 31.72 3.53 3.19 24.13-35.69 42.87-.41 9.63 18.14-.31 45.02-18.4 56.63-5.79 3.72-10.87-10.48-15.96-12.63-13.39-5.65-9.25 8.41-3.74 13.28 13.62 12.04-12.08 56.56 1.84 79.16 6.15 9.98 17.59 18.29 27.7 20.87 2.39.61 27.78 4.68 22.94-5.69zm156.43-79.03c-6.86-1.34-8.06-16.92-15.97-2.67-8.78 15.83-21.68 4.29-33.58 11.15-11.73 6.76 40.17 15.77 58.37-2.56 9.52-9.58 18.84-21.34 11.62-35.67-5.45-10.82-19.45-17.15-28.36-6.03-7.87 9.82 3.71 16.47 12.55 12.35 12.67-5.91 7.84 25.88-4.63 23.43m-114.82 75.88c-13.2 8.2 16.64 11.5 9.4 20.33-7.07 8.62-6.95 20.88 6.58 21.8-.98.02-1.32.05 1.56.06.63-.03.83-.04.79-.06 30.24-2.23 5.96-57.21-18.32-42.13zm-19.35-19.36c15.08-24.28-39.9-48.56-42.13-18.32-.01-.05-.03.15-.06.78.01 2.87.04 2.54.06 1.56.91 13.53 13.18 13.65 21.8 6.58 8.82-7.24 12.13 22.6 20.33 9.4m-6.95 25.57c5.9 6.08 9.99 14.51 16.72 18.87 9.19 5.95 5.61-12.48-7.68-25.76-6.35-6.35-17.97-13.57-23.87-13.76-14.64-.45 9.95 15.62 14.83 20.64zm153.97-33.17c.01.01.03-.11.06-.49.01-1.3-.01-1.34-.04-.98-.66-8.2-11.02 1.65-14.58-2.55-1.71-2.02 4.27-21.8-7.21-11.52-28.75 25.75 19.35 32.53 21.76 15.54zm35.51 10.12c.41 7.85 0-.53 0 0m-14.8-22.64c-9.69-2.61 2.8 15.48 2.87 17.11.3 6.86-11.44 9.94-8.82 16.46 5.69 14.17 21.23-1.58 20.75-10.92 0-8.41-6.09-20.29-14.8-22.64zM116.28 377.9c-7.42 2.38-15.6 17.18-9.74 23.94 5.93 6.83 26.11 3.18 27.93-6.5 1.68-8.94-8.46-2.79-11.24-2.78-8.81.3 3.23-17.92-6.95-14.65zM21.09 549.17c-2.81 5.88 3.69 16.87 9.73 10.01 6.38-7.24 13.11-10.66 19.67-16.94 4.45-4.26-24.93-2.43-29.4 6.93m39.79 3.46c-6.28 6.56-9.71 13.29-16.94 19.67-6.86 6.04 4.13 12.54 10.01 9.73 9.36-4.47 11.2-33.85 6.94-29.4zm140.58-45.49c-5.21-3.94-9.46 10.35-9.86 12.44-.48 7.36 15.49-8.18 9.86-12.44m-115.09-92.8c2.08-.39 16.37-4.64 12.43-9.86-4.25-5.63-19.8 10.34-12.43 9.86m6.91-51.78c6.52 2.62 9.6-9.13 16.46-8.83 1.63.08 19.72 12.57 17.11 2.88-2.35-8.71-14.23-14.8-22.64-14.8-9.34-.48-25.09 15.06-10.93 20.75m10.93-20.75c.53 0-7.85-.41 0 0"/></svg>