<svg xmlns="http://www.w3.org/2000/svg" xml:space="preserve" width="139.603" height="142.47" fill-rule="evenodd" clip-rule="evenodd" image-rendering="optimizeQuality" shape-rendering="geometricPrecision" text-rendering="geometricPrecision" viewBox="0 0 365.57 373.08"><path fill="#2b2b2a" d="M359.76 351.1H92.99c-3.8 0-10.25 1.68-11.85-2.79-1.2-3.35-1.35-6.33-4.1-8.98-5.15-4.98-8.48-9.39-16.22-10.38-3.7-.47-6.92-1.09-10.74-1.19-3.6-.1-2.9-4.42-3.45-6.77-1.29-5.44-1.59-11.49-5.78-15.63-5.38-5.33-15.84-7.67-17.47-9.54-1.91-2.18-1.78-17-1.78-20.2.02-9.47-.89-268.6-.88-275.44H.03C-.01 1.95.01 3.72.01 5.49c0 8.71.91 283.94.91 299.59 0 2.88-1.43 10.16.49 12.5 1.7 2.08 5.98-1.36 7.65-2.07 6.4-2.73 14.44-1.16 18.82 4.24 4.39 5.42-2.67 15.34-9.16 11.3-2.79-1.73-1.32-5.53-3.62-7.55-2.29-2.01-6.47.99-8.34 2.24-5.68 3.77-4.59 13.82 2.02 15.91 1.31.41 7.27 3.16 3.49 4.96-2.51 1.2-4.76-.34-6.95 2.47-3.02 3.88-.98 6.86-1.37 11.03-.3 3.28-1.15 9.17-.65 10.8 1.27 4.11 4.39 1.15 6.92 1.02 2.87-.15 6.27.77 9.26.77 3.28.01 6.75-1.07 8.47-4.18.79-1.45.18-5.7 3.08-5.19 2.8.49 4.23 4.24 5.94 6.03 2.24 2.36 5.98 2.83 9.04 2.11 3.2-.76 6.55-3.4 7.44-6.7.65-2.39.04-5.87-3.01-5.93-7.04-.16-9.12-7.31-3.99-11.71 5.15-4.42 13.46.82 15.96 5.96 1.78 3.67 1.82 7.03.45 10.8-.54 1.48-3.93 5.61-2.44 7.07l298.26-.17c2.33 0 6.89.95 6.89-2.63v-11.48c0-4.55-1.32-5.58-5.8-5.58zM38.78 291.57c2.37 1.88 1.05 4.63 2.72 6.73 1.71 2.15 4.26 3.22 5.97 5.27 1.88 2.24 2.81 10.28 7.44 8.97 2.62-.74-.26-10.01 1.3-12.38 1.27-1.93 2.32-4.21 4.44-5.38 1.03-.57 5.44-1.44 6.6-1.1 1.86.54 6.57 2.42 7.44-.4.66-2.13-1.27-5.49-3.01-6.63-4.14-2.72-8.62.04-11.67-3.95-1.58-2.06-3.65-3.81-6.3-4.17-2.37-.32-4.56.53-6.25-1.68-1.29-1.68-4.25-4.07-6.48-2.72-1.87 1.13-3.27 3.87-.93 5.34 4.98 3.11-.98 7.25-5.15 3.98-4.58-3.6-3.65-10.28-3.64-15.37.04-13.7-.01-254.2-.02-267.9-.89 0-4.1-.67-4.1.57 0 2.18 0 231.15-.01 233.32 0 3.63-.01 7.26-.05 10.89-.06 6.49-.68 29.21 0 33.82 1.03 7.04 6.87 8.99 11.68 12.79zm39.25-4.92c-.02 2.8 4.23 6.02 5.87 7.98 2.1 2.52 5.8 2.25 8.54 1.08 5.84-2.5 10.58 8.09 14.41-.92 1.22-2.86.92-4.93-1.16-7.32-.93-1.07-6.54-3.05-4.68-4.66 2.57-2.22 5.15-2.38 7.17-5.62 2.02-3.23 3.28-6.95 5.07-10.32 4.07-7.67-7.79-2.18-11.21-1.97-3.24.19-5.3 2.71-7.43 4.78-1 .98-4.06 6.44-5.28 3.87-2.51-5.29-8.86-9.46-13.77-4.12-2.39 2.6 1.07 4.44 2.27 6.42 1.54 2.54.92 8.08.21 10.8zm18.39 53.59c-2.1-1.29-3.68-2.53-4.66-4.87-.56-1.33.77-5.39 2.81-4.71 2.15.72 2.15 4.53 4.76 4.19 1.59-.21 2.71-1.57 2.75-3.15.07-2.3-1.06-4.26-2.78-5.71-1.83-1.55-1.74-3.08-2.17-5.24-.48-2.43-1.49-5.06-3.56-6.57-1.55-1.13-3.34-1.5-3.89-3.59-.97-3.66-.81-7.98-4.63-10.1-6.44-3.56-2.49 5.8-2.95 7.76-1.14 4.8-4.37 10.74-9.78 11.79-1.68.32-5.93-.94-6.84 1.08-.73 1.61 2.17 3.18 3.21 3.57 4.59 1.72 7.19 3.4 10.71 6.84 1.81 1.76 3.69 1.02 5.72 2.06 1.71.87 2.42 2.6 3.27 4.2 2.92 5.43 5.48 5.52 10.69 7.73 2.39 1.01 6.83.13 9.41.13h8.1c4.7.01 236.73-.68 241.36-1.02h.21c1.35 0 7.72-.03 5.53-2.54-1.15-1.32-4.23-.64-5.7-.64-6.09 0-239.87-.02-245.96-.01-4.67.01-11.51 1.34-15.62-1.19zm261.76 4.38h-.21c-1.08.08.98.01.21 0M62.05 305.36c.31 3.36 3.23 8.03 7 8.36 3.66.31 7.44-3.32 6.72-7.04-1.25-6.42-13.48-10.64-13.71-1.53 0-.4 0-1.07-.01.21"/></svg>