<svg xmlns="http://www.w3.org/2000/svg" xml:space="preserve" width="148.964" height="149.309" fill-rule="evenodd" clip-rule="evenodd" image-rendering="optimizeQuality" shape-rendering="geometricPrecision" text-rendering="geometricPrecision" viewBox="0 0 416.24 417.2"><path fill="#2b2b2a" d="M81.64 299.47c5.32-6.31-11.34-4.9-11.4-11.49-.09-9.52 1.3-20.15 11.25-24.48 4.26-1.85 25.17-3.1 13.49-12.33-4.38-3.46-7.42-10.16-14.01-9.95-2.96.09-7.77 5.5-10.7 2.21-5.01-5.6 12.29-16.47 15.53-18.13 12.79-6.56 39.18-11.74 43.79 8.81 1.05 4.66-16.87 4.1-15.55 15.17 1.01 8.5 12.82 14.28 20.03 9.86 13.73-8.42 14.53-23.1 7.31-35.93-10.43-18.55-48.41-30.46-71.8.72-8.32 11.09-3.67-3.77-6.32-9.32-3.96-8.32-12.99 12.11-13.81 13.74-4.03 8.02-4.28 16.79-4.26 25.55.03 17.2 6.27 29.98 11.02 46.22.64 2.17 10.11 23.59 1.62 15.42-7.4-7.13-15.8-12.12-25.76-14.12-13.77-2.78-38.31 8.18-30.62 26.87 3.97 9.65 14.33 10.49 13.74-1.18-.76-15.09 10.22-15.67 8.88-10.03-.98 4.09 1.79 18.31 7.82 10.45 6.41-8.36 12.74-7.44 21.09-1.7 8.4 5.77 14.86 18.95 14.56 29.12-.18 6.13-13.36 29.11-26.41 31.56-11.89 2.23-7.56-13.68-4.96-18.58 5.03-9.47 13.33-11.61 21.05-18.17 9.3-7.9-9.52-6.18-12.23-5.26-16.9 5.74-30.29 19.43-30.29 37.65 0 21.25 18.3 29.4 39.25 17.15 13.61-7.96 24.23-25.75 20.25-60.43-1.58-13.76-2.14-28.02 7.44-39.39zm18.62 51.59c7.91 3.13 15.68 6.45 23.63 9.5 37.48 14.37 62.66-2.45 68.41-7.3 7.6-6.42-1.1-10.17-7.32-7.78-8.58 3.3-10.99-.51-3.42-6.01 8.23-5.99 11.56-11.22 15.98-20.34 7.28-15.04 6.84-35.69-5.19-48.51-9.97-10.63-26.64-16.91-39.05-5.34-12.05 11.22-.04 37.18 12.31 24.81 4.11-4.11.61-18.17 11.21-11.08 8.11 5.43 10.56 14.68 10.56 23.79 0 10.6-4.66 17.89-10.34 26.58-3.52 5.37-15.63 14.66-10.61 1.48 3.06-8.04-6.45-15.55-12.34-19.58-7.55-5.18-7.7 15.62-9.43 18.65-4.72 8.26-11.91 8.55-19.99 11.07-10.33 3.23-3.51-7.5-8.33-11.42-4.64-3.77-12.01 5.73-16.3 7.61-6.39 2.8-15.25-1.95-19.9 4.67-10.6 15.1 26.18 22.42 9.41 40.32-5.32 5.67-2.72 12.75 5.82 11.37 11.61-1.88 5.13 5.83-2.16 7.19-23.11 4.28-2.73 26.62 14.32 10.99 12.19-11.18 6.34-32.14-1.34-43.77-1.16-1.76-16.72-21.16-5.93-16.89zm37.02-156.51c4.33-.1 21.25 8.53 19.6 29.97-.38 4.93-6.32 26.34-2.01 27.9 3.68 1.33 10.52-2.48 13.93-3.66 5.86-2.03 13.76-2 19.87-.93 8.38 1.46 22.97 10.77 20.61 20.93-1.03 4.43-5.58 10.93 3.31 11.3 3.88.16 7.64-2.68 9.55-5.83 4.27-7.02 2.77-15.74-1.22-22.24-6.17-10.06-16.93-15.05-28.35-15.27-11.44-.22.64-5.51 2.99-6.45 5.34-2.15 21.68-8.81 13.62-17.01-7.19-7.32 11.81-17.67 1.29-25.34-8.38-6.12-14.65 12.51-23.8 5.79-8.42-6.19-13.19 13.22-14.46 17.49-3.5 11.77-7.43-10.76-9.64-14.77-5.09-9.22-11.77-16.54-22.63-16.54 0-.51-20.56-.07-14.46 15.94.9 2.35 6.67-1.15 11.8-1.27zm2.66-14.67s1.29 0 0 0m-17.03 121.46c6.48-4.6 9.17 7.84 15.49 6.73 7.5-1.32 11.27-8.27 4.89-13.55-7.9-6.54-4.14-12.93-4.11-21.38 0 .37-.01 2.03 0-.03v-.01c-.01-8.97-11.33-4.22-16.94-3.95-5.64.27-13.57-9.71-18.05-6.18-6.26 4.93-2.34 13.02 2.62 17.26 4.73 4.04 2.29 14.31.41 19.55-4.18 11.62 13.25 3.29 15.7 1.55zm-28.63 10.57c-2.71 2.66-10.06 5.45-9.82 10.36.66 13.2 18.25-2.14 18.11-11.03-.88-10.56-4.21-3.32-8.29.67m-66.77-22.52c.74 0 1.47.03 2.2.07V.01H14.79v291.27c4.37-1.28 8.76-1.9 12.72-1.9zm97.92 96.62c.81 4.94.97 10.01.19 14.92h290.62v-14.92z"/></svg>