<svg xmlns="http://www.w3.org/2000/svg" xml:space="preserve" width="149.037" height="148.602" fill-rule="evenodd" clip-rule="evenodd" image-rendering="optimizeQuality" shape-rendering="geometricPrecision" text-rendering="geometricPrecision" viewBox="0 0 589.22 587.5"><path fill="#2b2b2a" d="M41.12 514.81c3.54-.44 6.99-3.96 8.38-7.06 1.91-4.27-.03-8.05-1.93-11.87-2.27-4.56-2.05-8.48-2.35-13.39 0-.41 0-.59.01-.63.24-17.37 10.26-34.49 29.55-34.99 9.25-.24 16.74 1.8 16.67 12.42-.02 2.71-.06 9.59 4.7 8.59 4.29-.9 6.49-6.94 7.12-10.62 1.59-9.42-3.9-18.98-11.09-24.67-3.24-2.56-7.12-4.32-8.18-8.69-.71-2.92 1.3-7.07-.72-9.55-2.37-2.92-20.38 4.31-23.83 7.02-7.32 5.74-12.43 12.9-16.73 21.09-1.9 3.62-3.38 11.63-6.73 13.98-3.69 2.58-5.4-3.53-5.57-5.92-.64-9.13 6.88-19.68 10.25-27.96 3.13-7.71 10.04-15.96 18.06-18.73 5.05-1.74 17.57-4.64 9.4-11.54-2.62-2.21-9.85-6.03-4.73-9.77 3.17-2.32 9.65-1.83 13.26-.91 3.16.81 6.37 2.18 8.29 4.94 2.98 4.28.8 7.95.63 12.51-.39 10.67 16.19 3.53 16.75-6.68 1.32-24.41-29.72-25.42-33.83-23.67-1.76.75-8.95 2.52-7.3-2.22 1.1-3.16 5.78-4.58 8.7-4.52 34.57.7 66.28 29.66 85.97 7.71 2.64-2.94-2-7.47 1.15-9.87 13.84-10.58 18.05-23.6 18.72-33.86.47-7.29-4.53-17.2-12.88-16.9-5.22.19-4.88 4.74-2.92 8.13 2.21 3.81 2.55 7.06.84 11.17s-13.87 18.62-16.94 8.27c-1.31-4.42 1.85-7.59-1.99-11.73-3.03-3.27-7.21-2.89-8.73 1.63-2.79 8.3-11.6 11.53-19.64 11.41-31.55-.49-47.6 17.81-53.53 13.81-5-3.37-1.04-8.36-.53-12.78.39-3.35.97-11.14-2.04-13.52-4.33-3.42-9.16 16.55-28.12 43.51-39.26 55.83-4.2 129.35 1.66 137.46 2.36 3.27 5.4 8.98 10.25 8.38zm4.1-32.94c0 .21-.01.42-.01.63.1 1.64.04-.78.01-.63m32.77 88.31c-6.03-4.29-9.07-10.7-8.67-18.09-.73-8.11 7.1-19.26 14.63-22.39 8.36-3.47 15.74-7.69 22.92.15 2.71 2.95 6.47 8.43 9.94 2.74 2.39-3.92-.56-8.12-3.2-10.98-5.29-5.74-12.98-8.42-14.87-16.73-1.04-4.56-.5-7.88-4.57-11.11-3.41-2.71-6.87-2.38-10.88-3.04-4.37-.72-5.81-4.23-8.52-7.18-2.81-3.05-6.26-5.39-9.74-7.61-3.06-1.95-10.54-.12-9.32 4.61.84 3.27 5.42 4.6 7.3 7.23 5.48 7.62-.21 17.95-4.57 24.61-4.7 7.19-17.13 10.27-25.17 9.65-8.32-.64-11.67-5.24-15.56-11.85-2.83-4.81-5.92 2.31-6.1 4.73-.32 4.3-.46 8.79 2.01 12.49 2.28 3.43 5.54 6.01 8.94 8.27 2.46 1.63 8.69 4.14 6.63 8.13-2.25 4.35-6.52 7.13-8.68 11.66-1.72 3.64-3.65 8.43-4.08 12.45-.33 3.06.96 6.55 4.53 6.63 3.29.07 8.81-1.15 12.02-2.03 6.77-1.84 15.53-15.79 21.71-7.46 2.27 3.06 3.31 6.78 5.99 9.58 3 3.13 7.29 4.62 11.33 5.9 3.8 1.21 10.5 1.68 12.06-3.48 1.07-3.55-3.94-5.38-6.07-6.89zm74.17-120.77c-3.11.3 2.69-.17 0 0m9.54-54.79c-6.53.52-12.89 19.14-18.19 8.97-3.29-6.31-5.57-14.21-14.2-14.45-13.4-.37.47 12.55 1.9 17.08 6.12 19.34-15.1 53.13-16.33 57.96-1.86 7.34 7.5 17.01 14.94 15.99 4.86-.67 34.81-22.14 52.33-25.15 4-.69 9.44 3 11.64 5.81 1.65 2.1 3.65 8.07 7.34 6.85 9.73-3.22.11-16.26-4.28-19.43-5.27-3.8-8-5.67-13.79-2.07-3.75 2.33-7.88 4.44-12.23 5.38-7.9 1.71-16.3-1.31-22.07 6.07-2.49 3.18-3.52 7.87-8.02 8.88-3.33.75-7.53-.45-8.28-4.33-.81-4.17 3.47-8.26 6.62-10.2 4.5-2.77 8.11-2.1 13.08-2.59 10.5-.69 23.52-2.06 28.95-12.8 2.45-4.85 5.28-11.85 3.93-17.29-1.43-5.77-1.02-8.82 3.43-13.16 2.38-2.32 8.34-6.02 6.67-10.16-1.55-3.84-6.66-5.25-10.32-4.43-4.31.96-8.56 3.44-12.44 5.47-4.53 2.38-6.48-2.76-10.67-2.43zM23.94 265.85c2.5.17 6.9.46 8.82.38.07-.14.13-.32.2-.53V7.32c0-4.04-3.28-7.32-7.32-7.32h-.15c-4.04 0-7.32 3.28-7.32 7.32v258.21c1.48.04 3.34.16 5.76.32zm-4.08 64.9c-.58-.49-1.14-.98-1.68-1.48v44.01c1.63-2.86 3.38-5.65 5.28-8.35 3.69-5.24 6.81-10.19 9.5-14.76v-17.63c-.5.36-1.05.69-1.68.96-3.55 1.54-7.4.62-11.43-2.74zm-4.77-34.15c5.07 5.86-.89 9.48.52 15.74 1.2 5.33 4.64 9.57 8.76 13 6.63 5.53 5.42-2.99 6.04-6.75 0-4.76 1.89-10.31 7.05-11.75 3.75-1.04 11.82 1.31 15.1 3.25 2.52 1.49 8.76 10.57 11.39 9.31 2.25-1.08-1.52-11.59-.98-14.26 1.14-5.69 2.36-11.57.19-17.3-2.15-5.67-12.84-18.98-12.09-29.84.5-7.26-8.21 1.42-9.23 3.31-2.21 4.1-1.42 9.61-6.67 11.62-2.57.99-15.29-.6-18.73-.37-4.69.31-11.54-5.66-15.05-2.09-3.74 3.81 1.07 10.69 3.08 14.24 2.65 4.69 7.15 7.85 10.62 11.86zm311.33 266.55c-.58-4.84-5.33-11.66 1.69-14.2 5.45-1.98 9.76-1.18 13.77-6.36 4.48-5.8-7.83-5.11-10.03-5.59-5.72-1.24-10.08-5.91-15.18-8.56-12.09-6.26-25.26-.2-37.46-4.98-4.68-1.84-3.19 3.95-.83 5.58 2.21 1.52 4.77 2.36 6.82 4.14 3.3 2.87 7.66 9.93 6.86 14.49-.99 5.62-6.58 8.91-11.74 9.67-5.25.78-8.35 3.26-4.81 8.61 2.73 4.12 7.25 7.67 12.45 7.01 4.22-.54 10.82-6.47 14.65-2.89 3.62 3.39 4.29 8.59 8.26 12.02 3.46 2.99 8.24 5.7 12.98 5.38 5.38 0 6.24-2.85 3.85-7.18-2.88-5.22-.58-11.46-1.26-17.15zm-219.34-83c-5.04 2.14-6.2 9.82.74 9.89 8.53.08 5.2-12.41-.74-9.89m161.34 53.78c-2.38-3.02-10.16-2.43-13.52-2.04-4.43.51-9.42 4.46-12.79-.53-3.99-5.93 14.31-21.98 13.81-53.53-.12-8.04 3.11-16.85 11.41-19.64 4.52-1.52 4.9-5.7 1.63-8.73-4.14-3.84-7.32-.69-11.73-1.99-10.35-3.07 4.16-15.23 8.27-16.94s7.36-1.36 11.17.84c3.39 1.96 7.94 2.3 8.13-2.92.3-8.36-9.61-13.36-16.9-12.88-10.27.67-23.28 4.88-33.86 18.72-2.41 3.15-6.93-1.49-9.87 1.15-21.95 19.69 7.01 51.4 7.71 85.97.06 2.92-1.36 7.6-4.52 8.7-4.74 1.65-2.96-5.54-2.22-7.3 1.75-4.12.74-35.16-23.67-33.84-10.21.55-17.35 17.14-6.68 16.74 4.56-.17 8.23-2.34 12.51.63 2.77 1.93 4.14 5.14 4.94 8.3.92 3.61 1.41 10.09-.91 13.26-3.74 5.12-7.55-2.11-9.77-4.73-6.9-8.17-9.8 4.35-11.54 9.4-2.77 8.02-11.02 14.93-18.73 18.06-8.28 3.37-18.83 10.89-27.96 10.24-2.4-.16-8.5-1.88-5.92-5.57 2.34-3.35 10.36-4.83 13.98-6.73 8.19-4.3 15.35-9.41 21.09-16.73 2.71-3.46 9.94-21.46 7.02-23.83-2.47-2.02-6.62-.01-9.55-.72-4.37-1.06-6.13-4.94-8.69-8.17-5.69-7.2-15.25-12.69-24.67-11.1-3.67.62-9.72 2.82-10.62 7.12-1 4.76 5.88 4.72 8.59 4.7 10.62-.07 12.66 7.42 12.42 16.67-.5 19.29-17.63 29.31-34.99 29.55-.04 0-.22.01-.63.01-4.91-.31-8.83-.09-13.38-2.36-3.82-1.9-7.6-3.84-11.87-1.94-3.1 1.39-6.62 4.85-7.06 8.38-.61 4.86 5.11 7.89 8.37 10.25 8.11 5.86 81.64 40.92 137.47 1.66 26.97-18.96 46.93-23.8 43.51-28.13zm-157.04 12.13c.21 0 .42-.01.63-.01.16-.03-2.26-.09-.63.01m470.53 11.26H332.23c.46 1.52.97 3.22 1.18 4.99.12 1.03.18 2.1.18 3.28 0 1.54-.1 3-.2 4.42-.05.73-.09 1.42-.12 2.1h248.64c4.04 0 7.32-3.28 7.32-7.32v-.15c0-4.04-3.28-7.31-7.32-7.31zm-314.96 4.59c0-.92.14-2.69 1.06-4.59H245.4c-5.03 2.9-10.56 6.34-16.45 10.49a103 103 0 0 1-6.65 4.3h49.03c-.59-.72-1.16-1.47-1.69-2.28-1.78-2.69-2.69-5.35-2.69-7.91z"/></svg>