<svg xmlns="http://www.w3.org/2000/svg" xml:space="preserve" width="148.905" height="148.292" fill-rule="evenodd" clip-rule="evenodd" image-rendering="optimizeQuality" shape-rendering="geometricPrecision" text-rendering="geometricPrecision" viewBox="0 0 324.52 323.18"><path fill="#2b2b2a" d="M62.4 246.81c-4.96-2.44-9.48-5.38-14.08-8.45-16.69-11.12-28.98-30.5-28.99-50.47 0-1.13.35-6.98-.07-12.49V0H8.27v174.81c-1.14 7.77.33 18.23.62 24.73 1.63 36.59 45.96 55.21 52.49 57.09 5.61 1.61 4.7-8 1.02-9.81zm31.41 25.18c13.01 1.63 32.74 7.99 37.98 11.85 2.37 1.74 10.17 8.88 6.64 12.41-2.95 2.97-2.41 6.99 2.7 6.25 4.6-.66 4.71-4.86 10.17-4.93 1.88-.02 8.96-.37 7.21-4.33-1.12-2.55-11.24-2.51-14.18-5.15-3.51-3.13-6.56-6.73-10.03-9.89-12.93-11.81-37.55-13.84-53.93-13.84-4.74 0-13.08-1.41-16.2 3.53-3.71 5.87 20.98 3.02 29.64 4.1m19.66-74.95c12.79.07 17.51 12.11 17.52 22.48 0 5.63 8.51 10.47 10.69 3.36 1.69-5.53 1.53-13.24-.14-18.72-3.59-11.81-15.73-18.02-27.22-18.02 0 0-15.05.32-10.89 5.93 4.5 6.07 3.51 4.94 10.04 4.98zm-42.14 62.78c6.18 4.1 7.61-1.55 7.6-6.91-.01-13.2 2.05-25.91 8.7-37.58 2.21-3.88 8.2-10.92-1-12.16-3.69-.5-7.04 5.82-8.35 8.64-5.44 11.71-8.54 20.33-8.54 33.36.11 0-.88 13.02 1.58 14.65zm-32.74-69.14c5.79 3.91 8.82 10.8 11.74 16.8 7.74 15.87 5.08 32.27 9.26 29.75 3.02-1.82 2.37-5.18 2.37-8.19v-.01c-.01-15.84-8.07-32.84-19.54-42.87-3.57-3.12-4.25-4.85-4.28-9.42-.01-1.03-.55-8.61-3.55-4.73-2 2.57-.91 6.73-3.53 9.38-1.79 1.81-4.42 1.73-5.36 4.49-3.32 9.73 8.88 2.08 12.89 4.79zm74.34 50.11c-4.31 4.46-17.63 8.84-23.83 8.18-9.07-.72-7.6 10.64 4.85 10.03 14.59-.71 34.09-13.54 31.47-16.91-3.58-4.6-8.01-5.94-12.49-1.3M9.23 304.61v-.19zm14.18 9.04c-8.86.41-14.18 2.84-14.18-9.04-.01-15.04-9.66-4.79-9.2 4.27.33 6.55 6.95 14.77 14.36 14.28 4.42-.29 9.52.51 12.65-3.69 2.44-3.27-.12-5.98-3.63-5.81zm31.09-47.81c.84 18.13-18.65 29.79-17.02 37.84 1.87 9.28 13.76-9.72 15.24-11.68 3.44-4.53 8.52-20.44 7.63-26.14 0-5.84-6.09-5.18-5.85-.02m5.85.02c.24 1.57 0-.87 0 0m-30.63 16.36c8.51-5.55 18.83-5.35 20.03-10.04 1.75-6.87-13.17-.6-14.84.22-3.75 1.84-17.64 6.16-17.9 11.37 0-.3 0-.49-.01.11 0 .61.01.59.01.39.34 8.41 9.71-.1 12.72-2.06zm66.3-77.72c2.88 0 5.21-2.33 5.21-5.21s-2.33-5.21-5.21-5.21-5.21 2.33-5.21 5.21 2.33 5.21 5.21 5.21m38.38 27.97c0-2.88-2.34-5.21-5.21-5.21-2.88 0-5.21 2.34-5.21 5.21 0 2.88 2.33 5.21 5.21 5.21s5.21-2.33 5.21-5.21M12.01 293.46c1.82 0 3.29-1.47 3.29-3.29s-1.47-3.29-3.29-3.29-3.29 1.47-3.29 3.29 1.47 3.29 3.3 3.29zm20.98 14.39c-1.82 0-3.29 1.47-3.29 3.29s1.47 3.29 3.29 3.29 3.3-1.47 3.3-3.29-1.47-3.29-3.29-3.29zm291.53 3.29h-166.7c-.32-.08-.64-.14-.98-.16-14.24-1.07-24.03 4.03-51.6-14.18-6.66-4.4-14.3-11.08-17.81-18.65-1.85-4-7.67-5.27-10.26-1.11-1.82 2.92 3.24 9.62 4.88 11.64 25.38 31.38 51.84 33.45 67.06 33.45 2.52 0 5.27.32 7.61 0h167.79v-10.99z"/></svg>