<svg xmlns="http://www.w3.org/2000/svg" xml:space="preserve" width="136.664" height="136.662" fill-rule="evenodd" clip-rule="evenodd" image-rendering="optimizeQuality" shape-rendering="geometricPrecision" text-rendering="geometricPrecision" viewBox="0 0 273.35 273.35"><path fill="#2b2b2a" d="M28.15 201.08c-2.52 1.81-5.47 6.41-2.93 9.66 1.15 1.47 8.43 3.49 6.53 6.78-3.71 6.41-21.12-4.34-22.63-15.79-.52-3.96-.32-9-.23-13.36.02-.97.03-1.9.03-2.78q0-.315-.03-.6V.02H0v188.36h.01c-.05 2.81.38 5.88.38 7.93 0-.25 0-3.25 0 0v.01c-.17 0-1.05 19.95 13.25 30.36 7.63 5.55 29.93 4.15 29.93-13.92 0-6.43-6.66-17.96-15.42-11.66zm245.2 63.3H84.99v.05c-4.48.01-9.79-.02-13.85-.56-11.45-1.51-22.04-18.57-15.63-22.28 3.29-1.9 5.3 5.38 6.78 6.53 3.25 2.54 7.84-.41 9.66-2.93 6.3-8.75-5.23-15.41-11.66-15.41-18.07-.01-19.47 22.29-13.92 29.92 10.41 14.3 30.36 13.42 30.36 13.25h.01c.25 0 3.24 0 0 0l196.61-8.58zm-196.61 8.58c2.4 0 6.21.6 9.35.31h187.26v-8.89zm2.06-57.54c-5.89 0-11.26.82-16.36 3.65-6.98 3.89 7.83 2.97 10.23 2.95 4.32-.03 12.54 6.34 12.96 10.81 1.11 11.62-4.23 15.4-5.18 17.99-.99 2.71 6.52 1.91 7.54 1.73 5.76-.99 8.41-12.86 8.39-14.45-.05-3.84 0-4.48 3.09-6.39 5.36-3.31.8-12.19-4.65-12.17-2.04.01-8.94-4.12-16-4.11.23 0 1.96-.01-.02 0zm-31.05 13.5c0-1.82-1.47-3.29-3.29-3.29s-3.29 1.47-3.29 3.29 1.47 3.29 3.29 3.29 3.29-1.47 3.29-3.29M26.08 239.3a8.14 8.14 0 0 0-8.14 8.14c0 4.5 3.64 8.14 8.14 8.14a8.14 8.14 0 0 0 0-16.28m31.84-45.09s.01-2.13 0 0c.02-7.07-4.12-13.99-4.11-16.03.02-5.45-8.87-10.01-12.17-4.66-1.91 3.1-2.55 3.15-6.4 3.09-1.59-.02-13.47 2.63-14.46 8.39-.18 1.02-.99 8.53 1.73 7.54 2.59-.94 6.38-6.29 18-5.18 4.46.43 10.84 8.65 10.81 12.96-.02 2.4-.94 17.21 2.95 10.23 2.84-5.1 3.66-10.47 3.66-16.36zm4.71 19.93c6.55-6.99 31.49-10.88 33.28-14.36 2.26-4.4-2.25-4.2-3.4-6.89-.72-1.69 3.01-7.25 3.71-8.62 1.12-2.17 2.4-4.45.47-6.39-2.27-2.27-4.86-1.13-7.11.3-2.22 1.41-4.97 2.01-7.2 3.34-2.51 1.49-3.34-5.64-6.63-5.19-3.29.44-8.26 10.64-7.98 13.69.18 1.95-3.78 13.14-5.25 15.22-1.52 2.16-3.16 4.86-4.5 7.16-2.24 3.85 2.97 3.5 4.6 1.75z"/></svg>