<svg xmlns="http://www.w3.org/2000/svg" xml:space="preserve" width="103.47" height="185.739" fill-rule="evenodd" clip-rule="evenodd" image-rendering="optimizeQuality" shape-rendering="geometricPrecision" text-rendering="geometricPrecision" viewBox="0 0 318.88 572.42"><path fill="none" stroke="#252523" stroke-linecap="round" stroke-linejoin="round" stroke-miterlimit="10" stroke-width="4.5" d="M10.34 123.58s52.67 37.1 115.97 51.51M24.36 93.38s39.53 35.93 105.3 76.69M50.25 62.11s41.28 46.15 85.26 103.78M92.85 34.07s25 47.87 48.94 125.97m-7.42-145.38s16.18 35.05 16.72 143.98m21.57-147.21s4.85 90.05-12.94 146.67m51.7-146.48s-3.7 70.99-38.75 141.09m80.35-126.72s-4.85 46.38-66.87 127.26M288.07 43.79s-35.05 74.95-91.67 111.62m111.62-75.5s-48.91 58.64-110.39 84.52m-184.58-43c0 2.98-2.41 5.39-5.39 5.39s-5.39-2.41-5.39-5.39 2.41-5.39 5.39-5.39 5.39 2.41 5.39 5.39m14.02-28.58c0 2.98-2.41 5.39-5.39 5.39s-5.39-2.41-5.39-5.39 2.41-5.39 5.39-5.39 5.39 2.41 5.39 5.39M51.34 57.8c0 2.98-2.41 5.39-5.39 5.39s-5.39-2.41-5.39-5.39 2.41-5.39 5.39-5.39 5.39 2.41 5.39 5.39M96.1 31.38c0 2.98-2.41 5.39-5.39 5.39s-5.39-2.41-5.39-5.39 2.42-5.39 5.39-5.39c2.98 0 5.39 2.41 5.39 5.39m42.6-19.41c0 2.98-2.41 5.39-5.39 5.39s-5.39-2.41-5.39-5.39 2.41-5.4 5.39-5.4 5.39 2.41 5.39 5.39zm39.37-3.78c0 2.98-2.41 5.4-5.39 5.4s-5.39-2.41-5.39-5.39 2.42-5.39 5.39-5.39c2.98 0 5.39 2.42 5.39 5.39zm38.29-.54c0 2.98-2.41 5.39-5.39 5.39s-5.39-2.42-5.39-5.39c0-2.98 2.41-5.39 5.39-5.39s5.39 2.41 5.39 5.39m42.06 14.02c0 2.98-2.41 5.39-5.39 5.39s-5.39-2.41-5.39-5.39 2.41-5.39 5.39-5.39 5.39 2.41 5.39 5.39m37.75 19.95c0 2.98-2.41 5.39-5.39 5.39s-5.39-2.41-5.39-5.39 2.41-5.4 5.39-5.4 5.39 2.42 5.39 5.39zm0 0c0 2.98-2.41 5.39-5.39 5.39s-5.39-2.41-5.39-5.39 2.41-5.4 5.39-5.4 5.39 2.42 5.39 5.39zm20.49 34.51c0 2.98-2.41 5.39-5.39 5.39s-5.4-2.41-5.4-5.39 2.41-5.39 5.4-5.39c2.98 0 5.39 2.41 5.39 5.39M132.8 186.17s-30.54-8.16 8.36-24.48c30.55-12.82 49-9.7 58.74-5.35s12.67 10.44 5.47 15.34-30.61 21-72.57 14.48zm31.14-5.53s11.84 28.95 11.84 119.76c0 90.8-19.74 185.55 2.63 269.77m-2.63-275.04s-19.74-53.95-134.23-75.01c0 0 32.9 59.22 134.23 80.28zm-5.26 155.29s-19.74-53.95-134.23-75.01c0 0 32.9 59.22 134.23 80.28zm2.63-90.81s17.61-53.95 119.76-75.01c0 0-29.35 59.22-119.76 80.27v-5.27z"/></svg>