<svg xmlns="http://www.w3.org/2000/svg" xml:space="preserve" width="79.067" height="181.374" fill-rule="evenodd" clip-rule="evenodd" image-rendering="optimizeQuality" shape-rendering="geometricPrecision" text-rendering="geometricPrecision" viewBox="0 0 205.65 471.75"><path fill="#252523" d="M79.89 119.74c-3.29-5.91-8.31-12.38-15.92-17.54-19.17-13.01-30.81 9.58-21.22 19.17 9.58 9.58 22.59-3.42 13.01-12.32zm7.57 259.46s3.74-21.1 24.89-33.33c21.15-12.24 32.86 10.81 22.17 20s-24.23-4.33-13.57-12.84l-33.49 26.16zm17.47-175.54s8.96-19.46 32.52-25.93 29.05 18.79 16.37 24.97c-12.67 6.19-22.34-10.32-9.87-15.85l-39.03 16.82zm-47.47 268.1c21.25-44.95 33.5-90.29 39.69-133.62 5.81-15.4 15.13-23.86 20.51-27.71 5.46 1.75 19.54 5.26 40.58 3.52 27.5-2.27 33.94-26.17-2.93-28.48 0 0 7.77-24.73-7.52-27.61-13.73-2.58-29.94 34.65-32.39 48.08-4.17 2.85-10.62 8.26-16.34 17.28.43-3.81.82-7.61 1.16-11.39l.2-.03-.13-.74c2.86-32.08 2.62-62.72.54-90.9 12.75-36.04 24.34-54.79 31.04-63.62 7.47-.05 26.17-1.4 51.27-11.95 32.93-13.83 31.26-45.82-15.03-33.86 0 0-.36-33.56-20.34-30.96-18.7 2.43-23.34 59.23-20.22 74.22-6.41 8.53-16.46 24.93-27.71 54.5-6.33-67.74-22.71-119.57-29.96-139.94 2.36-6.32 6.69-21.03 6.25-42.95-.61-29.98-26.08-38.57-31.08 1.25 0 0-26.3-10.1-30.44 6.29C10.77 48.3 52.58 69.17 65.8 71.79c3.49 9.94 8.81 26.42 14.09 47.92 1.04 4.24 2.08 8.67 3.11 13.29 5.39 24.29 10.36 53.65 12.84 86.43l-.19.54.24.08c1.7 22.83 2.19 47.31.77 72.87-11.05-48.26-28.94-74.7-37.65-85.33.05-6.23-.83-20.29-8.08-39.07-9.94-25.74-34.68-25.17-26.49 10.85 0 0-25.92-.48-24.36 15.01 1.42 14.12 42.99 19.11 55.9 17.43 9.6 12.21 29.57 43.23 39.35 99.51-.76 8.41-1.74 16.91-2.96 25.49-.13.36-.27.73-.4 1.09l.23.08c-2.91 20.19-7.16 40.82-13.03 61.63 3.73-37.01-7.77-66.19-8.38-67.7l-.09.04c1.95-6.82 4.48-19.54 3.41-37.24-1.66-27.55-25.41-34.52-28.53 2.29 0 0-24.55-8.32-27.77 6.91-3.07 14.55 38.87 32.91 49.61 33.8 3.38 11.88 12.12 48.85 3.61 87.77a443 443 0 0 1-18.04 44.15l4.46 2.11z"/></svg>