<svg xmlns="http://www.w3.org/2000/svg" xml:space="preserve" width="165.949" height="171.746" fill-rule="evenodd" clip-rule="evenodd" image-rendering="optimizeQuality" shape-rendering="geometricPrecision" text-rendering="geometricPrecision" viewBox="0 0 530.61 549.15"><path fill="#252523" d="m310.27 511.66-.63-24.13 82.38-61.76c58.95 44.43 105.99 8.74 83.69-12.23-17.09-16.06-49.19-7.74-63.62-2.82l39.35-29.5c88.77-16.62 73.85-65.31 42.56-66.27-26.31-.8-43.66 44.76-49.16 61.58l-43.5 31.78c7.22-23.34 20.38-78.45-18.59-72.29-32.82 5.19-2.62 69.32 4.14 82.85l-77.56 56.66-3.89-148.17s4.52-11.78 15.35-22.9c8.95-9.2 63.09-48 81.56-61.15 31.84 21.86 116.69-21.93 116.69-21.93l-45.58-20.32 24.32-46.56-50.98 9.08-11.09-43.72s-61.8 69.92-42.1 113.01c.32.71.67 1.38 1.04 2.04l-81.23 57.79s-9.35 10.29-12.3-3.95c-1.12-5.41-1.89-23.94-2.41-44.84 90.81-16.29 75.91-65.64 44.41-66.6-21.33-.65-36.77 29.17-44.78 49.45-.37-19.82-.55-39.19-.62-49.61 39.82-3.63 64.03-103.21 64.03-103.21l-45.22 21.1-19.22-48.89-26.57 44.46-40.28-20.29s12.29 92.51 57.74 105.88c.19.06.38.09.57.14l1.34 103.85s-1.9 7.67-7.77-4.17c-4.91-9.91-35.61-59.94-45.49-75.99C257.48 173.2 220.88 93.2 220.88 93.2l-16.68 42.95-39.1-23.34 5.34 44.57-38.37 7.44s55.43 54.91 93.65 42.72l49.31 74.13s15.44 21.98-2.33 14.5c-13.82-5.81-77.53-40.8-105.21-56.09 9.06-37.91-81.44-91.85-81.44-91.85l11.86 49.8-50.49 3.33 33.02 37.38-30.4 31.03s77.54 13.83 108.41-15.41l111.66 51.01s16.73 1.47 19.68 31.62c2.21 22.54 7.73 87.66 10.07 139.04l-67.23-37.54c20.68-68.71-27.61-100.32-39.9-72.65-9.35 21.06 8.31 48.03 17.86 60.35l-41.19-23c-45.78-82.73-88.17-52.11-78.61-21.82 7.52 23.82 51.8 26.23 71.42 26.11l46.08 26.92c-25.94 1.36-76.09 8.19-58.31 41.25 15.5 28.81 64.75-18.9 76.32-30.74l74.07 43.27c.46 12.53.67 23.86.53 33.03-.74 47.74 11.92 27.44 9.38-9.54zM523.46 189a4.93 4.93 0 0 1-2.19-6.62 4.935 4.935 0 1 1 8.81 4.45 4.926 4.926 0 0 1-6.62 2.18zm-6.59-71.27a3.963 3.963 0 0 1-1.75-5.3 3.93 3.93 0 0 1 5.3-1.74 3.946 3.946 0 1 1-3.55 7.05zm-43.44-3.69a4.935 4.935 0 0 1-2.18-6.63 4.926 4.926 0 0 1 6.62-2.18 4.935 4.935 0 0 1 2.18 6.63 4.926 4.926 0 0 1-6.62 2.18m39.96 51.1c-4.87-2.45-6.82-8.39-4.37-13.25a9.876 9.876 0 0 1 13.26-4.37c4.86 2.45 6.82 8.39 4.37 13.25-2.46 4.87-8.39 6.82-13.25 4.36zm-17.79 35.12c-4.38-2.21-6.14-7.55-3.93-11.92 2.21-4.38 7.55-6.14 11.92-3.93a8.88 8.88 0 0 1 3.93 11.93c-2.21 4.38-7.55 6.14-11.92 3.93zm-10.37-54.31c-4.75-2.39-6.65-8.18-4.26-12.92s8.18-6.65 12.92-4.25c4.74 2.39 6.65 8.18 4.25 12.92-2.39 4.74-8.17 6.65-12.91 4.25m-31.76-3.31c-3.89-1.96-5.46-6.71-3.49-10.6 1.96-3.89 6.7-5.45 10.6-3.49 3.89 1.96 5.45 6.71 3.49 10.6-1.97 3.89-6.71 5.46-10.6 3.49m-113.3-93.28a4.943 4.943 0 0 1-6.44-2.69c-1.03-2.52.17-5.4 2.69-6.43 2.53-1.03 5.4.17 6.44 2.7 1.03 2.52-.17 5.4-2.69 6.43zM282.03 7.6c-2.02.83-4.32-.14-5.14-2.15-.83-2.02.14-4.32 2.16-5.15s4.32.14 5.15 2.16-.15 4.32-2.16 5.15zm-31.26 30.39c-2.52 1.04-5.4-.17-6.44-2.69-1.03-2.52.18-5.4 2.7-6.43 2.52-1.04 5.4.18 6.44 2.7 1.03 2.52-.17 5.4-2.69 6.43zm64.78 3.32c-5.04 2.06-10.8-.35-12.86-5.39-2.07-5.04.35-10.81 5.39-12.87s10.8.35 12.86 5.39c2.07 5.04-.35 10.8-5.39 12.87m14.86 36.46a8.873 8.873 0 0 1-11.58-4.85 8.873 8.873 0 0 1 4.85-11.58c4.53-1.86 9.72.32 11.58 4.85a8.873 8.873 0 0 1-4.85 11.58M282.6 50.01c-4.91 2.01-10.53-.34-12.54-5.26a9.625 9.625 0 0 1 5.26-12.55c4.91-2.01 10.53.34 12.54 5.26 2.01 4.91-.34 10.53-5.26 12.55m-23.32 21.81a7.89 7.89 0 0 1-10.29-4.31 7.89 7.89 0 0 1 4.31-10.29c4.04-1.65 8.64.28 10.3 4.31a7.89 7.89 0 0 1-4.32 10.29m-63.09 20.45a4.28 4.28 0 0 1-5.84 1.56 4.277 4.277 0 0 1-1.56-5.84 4.277 4.277 0 0 1 5.84-1.56 4.28 4.28 0 0 1 1.56 5.84m-62 2.18c-.94 1.63-3.04 2.19-4.68 1.25-1.63-.95-2.2-3.04-1.25-4.67a3.43 3.43 0 0 1 4.67-1.25c1.64.95 2.2 3.04 1.25 4.67zm-5.33 37.41a4.28 4.28 0 0 1-5.84 1.56 4.27 4.27 0 0 1-1.56-5.84 4.28 4.28 0 0 1 5.84-1.56 4.28 4.28 0 0 1 1.56 5.84m46.18-32.06c-2.36 4.09-7.59 5.49-11.68 3.13a8.55 8.55 0 0 1-3.12-11.68 8.54 8.54 0 0 1 11.68-3.12 8.54 8.54 0 0 1 3.12 11.68zm23.52 16.56a7.7 7.7 0 0 1-10.52 2.81 7.69 7.69 0 0 1-2.81-10.51c2.12-3.68 6.83-4.94 10.52-2.81a7.706 7.706 0 0 1 2.81 10.51m-41.5 6.87c-2.31 3.98-7.4 5.35-11.39 3.05a8.34 8.34 0 0 1-3.05-11.39c2.31-3.98 7.41-5.35 11.39-3.04 3.98 2.3 5.35 7.4 3.05 11.39zm-4.44 27.31a6.836 6.836 0 1 1-11.83-6.85 6.836 6.836 0 0 1 9.34-2.5 6.836 6.836 0 0 1 2.5 9.34zm-89.73 12.4a4.75 4.75 0 0 1-4.36 5.12 4.75 4.75 0 0 1-5.12-4.35 4.76 4.76 0 0 1 4.36-5.12c2.62-.21 4.9 1.74 5.12 4.35M7.57 204.07a3.793 3.793 0 0 1-3.49 4.09 3.8 3.8 0 0 1-4.09-3.48 3.787 3.787 0 0 1 3.49-4.09 3.79 3.79 0 0 1 4.09 3.48m18.74 37.58a4.75 4.75 0 0 1-4.36 5.12 4.737 4.737 0 0 1-5.11-4.36c-.21-2.62 1.74-4.91 4.35-5.11a4.75 4.75 0 0 1 5.12 4.36zm22-58.48c.42 5.23-3.48 9.81-8.71 10.23s-9.81-3.48-10.23-8.71 3.48-9.81 8.71-10.23 9.81 3.48 10.23 8.71m31.95.3c.37 4.71-3.13 8.83-7.84 9.21s-8.83-3.13-9.21-7.84 3.13-8.83 7.84-9.21c4.7-.38 8.83 3.13 9.21 7.84m-33.62 32.48c.41 5.1-3.39 9.57-8.49 9.97-5.1.41-9.56-3.39-9.97-8.49-.4-5.1 3.39-9.56 8.49-9.97s9.57 3.39 9.98 8.49zm13.19 27.78a7.59 7.59 0 0 1-6.97 8.18c-4.18.33-7.85-2.79-8.18-6.97a7.59 7.59 0 0 1 6.97-8.18c4.18-.34 7.85 2.78 8.19 6.97z"/></svg>