<svg xmlns="http://www.w3.org/2000/svg" xml:space="preserve" width="96.024" height="135.715" fill-rule="evenodd" clip-rule="evenodd" image-rendering="optimizeQuality" shape-rendering="geometricPrecision" text-rendering="geometricPrecision" viewBox="0 0 560.72 792.48"><path fill="#252523" d="M24.01 176.79c60.47-26.05 131.41 28.27 162.75 56.67a2043 2043 0 0 0-34.14-60.59C33.26 125.79-10.8-23.07 71.1 3.05c75.6 24.11 86.1 146.32 87.4 168.67 10.46 15.38 22.46 33.71 35.54 54.99-2.27-40.94.62-120.39 53.26-148.78 70.01-37.76 56.58 102.76-41.6 168.08 21.37 35.97 44.77 78.8 67.87 127.3-.05-45.1 7.78-138.73 70.88-167.71 82.24-37.77 55.98 122.1-61.49 187.86 18.47 40.26 36.51 84.1 52.95 131.12 8.32-52.17 34.42-156.66 111.46-178.31 100.79-28.33 42.61 148.82-102.79 203.76 15.3 46.57 28.75 96.05 39.47 147.8 11.32-52.76 44.31-161.55 126.17-179.58 106.47-23.44 34.34 158.43-121.08 205.29 3.95 21.2 7.46 42.74 10.33 64.66l-18.52 4.26s-2.23-23.47-10.38-65.18c-163.37 41.04-324.62-81.5-217.35-118.02 85.07-28.96 175.9 55.55 212.66 95.29-8.26-38.4-20.83-88.05-39.56-146.41-149.93 45.05-304.79-62.47-206.71-100.53 76.98-29.87 163.51 43.31 199.66 79.02-13.98-41.66-31.02-87.26-51.77-136.01-135.26 46.59-280.55-46.41-192.33-84.42 68.67-29.59 149.34 33.17 183.85 64.7-18.07-41.17-38.75-84.4-62.42-129.21-.05.04-.11.07-.16.1 0 0-.02-.11-.02-.15-120.82 42.33-251.24-40.9-172.4-74.88z"/></svg>