<svg xmlns="http://www.w3.org/2000/svg" xml:space="preserve" width="84.272" height="169.576" fill-rule="evenodd" clip-rule="evenodd" image-rendering="optimizeQuality" shape-rendering="geometricPrecision" text-rendering="geometricPrecision" viewBox="0 0 189.93 382.18"><path fill="#252523" d="M87.38 87.25s-26.01-4.36-49.94-27.89C13.51 35.84 18.99 9.59 52.18 42.03s35.2 45.22 35.2 45.22m15.17 15.44s26.01 4.36 49.94 27.89 18.45 49.78-14.74 17.33c-33.19-32.44-35.2-45.22-35.2-45.22m-15.3-.13s-4.36 26.01-27.89 49.94c-23.52 23.93-49.77 18.46-17.33-14.74 32.44-33.19 45.22-35.2 45.22-35.2m15.43-15.17s4.36-26.01 27.89-49.95c23.53-23.93 49.78-18.46 17.34 14.74-32.45 33.2-45.23 35.21-45.23 35.21m-10.77-2.8s-20.89-16.1-30.93-48.12 7.16-52.6 21.16-8.35c14.01 44.25 9.76 56.47 9.76 56.47zm6.12 20.76s20.89 16.1 30.93 48.12-7.16 52.6-21.16 8.35c-14.01-44.25-9.76-56.47-9.76-56.47zm-13.44-7.32s-16.1 20.89-48.12 30.93c-32.02 10.03-52.6-7.16-8.35-21.16 44.25-14.01 56.47-9.76 56.47-9.76zm20.76-6.12s16.09-20.89 48.12-30.93c32.02-10.04 52.6 7.16 8.35 21.16-44.25 14.01-56.47 9.77-56.47 9.77M97.7 84.5S88.1 59.94 96 27.32s33.24-41.4 22.44 3.75C107.64 76.21 97.7 84.5 97.7 84.5m-5.45 20.94s9.6 24.56 1.7 57.18-33.24 41.39-22.44-3.75 20.74-53.43 20.74-53.43m-7.74-13.2s-24.56 9.61-57.18 1.7c-32.62-7.9-41.39-33.24 3.75-22.44s53.43 20.74 53.43 20.74m20.94 5.46s24.56-9.6 57.18-1.71c32.62 7.9 41.4 33.24-3.75 22.44-45.14-10.8-53.43-20.73-53.43-20.73m-2.11-1.71c-.65 5.04-5.26 8.59-10.3 7.94s-8.59-5.26-7.94-10.3 5.26-8.59 10.3-7.94 8.59 5.26 7.94 10.3m-.71 286.18c-.86-.11-1.63-.68-1.95-1.55-37.23-100.18-12.56-234.36-12.31-235.7.25-1.3 1.55-2.12 2.81-1.92 1.31.25 2.16 1.5 1.92 2.81-.26 1.33-24.67 134.22 12.09 233.13a2.403 2.403 0 0 1-2.57 3.22z"/></svg>