<svg xmlns="http://www.w3.org/2000/svg" xml:space="preserve" width="216.299" height="51.953" fill-rule="evenodd" clip-rule="evenodd" image-rendering="optimizeQuality" shape-rendering="geometricPrecision" text-rendering="geometricPrecision" viewBox="0 0 814.14 195.55"><path fill="none" stroke="#252523" stroke-miterlimit="10" stroke-width="6.81" d="M723.77 66.3c-27.39 8.92-138.56 41.09-326.66 44.72C178.48 115.25 1.75 8.73 1.75 8.73m129.73 84.11-20.73-31.58m552.61-3.48L625.75 89.3m-88.18-14.16-37.61 31.52m-97.69-20.84-41.78 25.75m-79.23-41.35-41.77 25.74m-9.42 24.75-35.1-34.3m-10.01-36.85-38.27 16.85m575.18 29.35-38.63-15.99m-66.3 39.67-45.35-18.77m-88.61 28.97-45.34-18.77m-85.09 26.46-38.48-30.45m20.01 15.9s4.78 33.87 34.55 60.62c29.77 26.74 66.42-14.27 31.14-36.27-30.59-19.09-65.7-24.35-65.7-24.35zM121.5 77.72s-4.73 25.9 10.53 52.67c15.26 26.76 51.98 5.69 31.56-18.94-17.72-21.36-42.09-33.73-42.09-33.73zm523.86-4.8s20.79 1.33 45.24-9.38c6.88-3.01 14.04-6.98 21.12-12.19 32.22-23.74-.52-67.93-29.22-37.84-15.28 16.03-25.81 34.79-31.65 46.87-3.67 7.59-5.49 12.54-5.49 12.54zM519.57 90.28s34.13 2.18 66.36-21.57c5.18-3.82 8.68-8.16 10.79-12.65 11.01-23.38-15.92-50.44-40-25.19-6.34 6.65-11.86 13.77-16.57 20.69-13.76 20.22-20.57 38.71-20.57 38.71zm-137.3 7.92s33.46 7.09 68.78-11.73c19.65-10.47 20.31-30.12 11.4-41.08-6.66-8.2-18.68-11.53-32.12-2.56-.9.6-1.8 1.24-2.71 1.96-28.39 22.22-45.35 53.41-45.35 53.41zm-121-15.6s33.45 7.1 68.77-11.74c16.31-8.69 19.54-23.69 15.07-34.81-5.21-12.97-20.87-20.65-38.5-6.85a145 145 0 0 0-4.24 3.45C276.54 54.5 261.26 82.6 261.26 82.6zm-48.06 21.72s1.22 34.18 28.05 63.89c26.83 29.7 67.54-7.27 34.76-32.83-28.43-22.17-62.81-31.06-62.81-31.06zm506.02-39.6s1.61.67 4.52 1.57c10.04 3.09 35.64 8.89 65.24-.39 38.2-11.97 21.6-64.41-15.32-45.29-27.44 14.21-47.84 36.47-53.1 42.53-.88 1.01-1.34 1.57-1.34 1.57zm-552.59-7.04s27.41 9.9 59.42-1.87c15.4-5.66 19.61-18.77 16.44-28.86-3.43-10.89-15.45-18.28-31.35-9.04-3.23 1.88-6.33 3.89-9.29 5.97-21.37 15.03-35.22 33.81-35.22 33.81zm536.7 30.46s11.81 26.64 42.43 41.64c30.64 15 51.13-27.15 17.08-36.98-29.51-8.52-59.52-4.66-59.52-4.66zM595.19 110.5s13.86 31.27 49.8 48.86c35.95 17.6 59.99-31.87 20.05-43.4-34.63-10-69.85-5.47-69.85-5.47zm-133.95 10.19s13.85 31.27 49.81 48.86c35.95 17.6 59.99-31.87 20.05-43.4-34.64-10-69.85-5.46-69.85-5.46z"/></svg>