<svg xmlns="http://www.w3.org/2000/svg" xml:space="preserve" width="61.089" height="181.731" fill-rule="evenodd" clip-rule="evenodd" image-rendering="optimizeQuality" shape-rendering="geometricPrecision" text-rendering="geometricPrecision" viewBox="0 0 93.25 277.4"><path fill="none" stroke="#252523" stroke-miterlimit="10" stroke-width="4.38" d="M44.07 98.9c-8.13 39.47-12.64 101.04 17.1 177.71M46.16 99.55s-28-8.59-17.5-49.49C39.15 9.15 62.48 6.36 74.19 9.13S98.1 30.44 86.15 64.88C74.2 99.33 52.81 100.9 46.16 99.54zM73.02 9.56S50.08 11 39.04 51.2c-9.71 35.32 7.13 48.35 7.13 48.35s22.48-2.27 33.15-38.85c12.1-41.51-6.29-51.14-6.29-51.14zm.22.06s-13.23 9.4-23.46 44.58c-10.24 35.18-3.52 45.38-3.52 45.38s11.85-5.25 22.62-41.79c10.77-36.55 4.36-48.16 4.36-48.16zm.96-.49L46.93 98.76M17.36 78.55s5.5 18.63 27.02 23.66c21.52 5.02 36.24-7.4 36.24-7.4s-17.44-8.01-34.15.63c0 0-8.81-17.17-29.11-16.88zm62.6-68.87c-.51 3.6-3.96 6.12-7.7 5.62s-6.35-3.82-5.84-7.42 3.96-6.12 7.7-5.62 6.35 3.82 5.84 7.42zM41.09 207.11s-8.18-60.55-37.92-87.42c0 0-9.3 64.49 44.24 117.51l-6.32-30.1z"/></svg>