<svg xmlns="http://www.w3.org/2000/svg" xml:space="preserve" width="92.282" height="169.188" fill-rule="evenodd" clip-rule="evenodd" image-rendering="optimizeQuality" shape-rendering="geometricPrecision" text-rendering="geometricPrecision" viewBox="0 0 317.45 582"><path fill="none" stroke="#252523" stroke-miterlimit="10" stroke-width="9.25" d="M158.72 36.15s21.36 286.84-45.77 544.68m-32.04-504 80.36 67.13 84.42-76.29M66.67 141.92l94.6 83.4 107.82-98.66m-209.53 94.6 95.61 89.51 119.01-93.57M39.22 297.55l106.8 105.78 145.46-111.88M33.12 390.11l97.65 102.74 142.4-104.76M176.54 21.92c0 9.55-7.74 17.29-17.29 17.29s-17.29-7.74-17.29-17.29 7.74-17.29 17.29-17.29 17.29 7.74 17.29 17.29zM90.08 66.67c0 9.55-7.74 17.3-17.29 17.3S55.5 76.23 55.5 66.67c0-9.55 7.74-17.29 17.29-17.29s17.29 7.74 17.29 17.29zm183.09-12.2c0 9.55-7.74 17.29-17.29 17.29s-17.29-7.74-17.29-17.29 7.74-17.29 17.29-17.29 17.29 7.74 17.29 17.29zM78.89 133.81c0 9.55-7.74 17.29-17.29 17.29s-17.29-7.74-17.29-17.29 7.74-17.29 17.29-17.29 17.29 7.74 17.29 17.29zm211.57-10.17c0 9.55-7.74 17.29-17.29 17.29s-17.29-7.74-17.29-17.29 7.74-17.29 17.29-17.29 17.29 7.74 17.29 17.29zM67.71 213.15c0 9.55-7.74 17.29-17.29 17.29s-17.29-7.74-17.29-17.29 7.74-17.29 17.29-17.29 17.29 7.74 17.29 17.29zm226.82-4.07c0 9.55-7.74 17.29-17.29 17.29s-17.29-7.74-17.29-17.29 7.74-17.29 17.29-17.29 17.29 7.74 17.29 17.29zM50.42 288.42c0 9.55-7.74 17.29-17.29 17.29s-17.29-7.74-17.29-17.29 7.74-17.29 17.29-17.29 17.29 7.74 17.29 17.29zm-11.19 98.66c0 9.55-7.74 17.29-17.29 17.29s-17.29-7.74-17.29-17.29 7.74-17.29 17.29-17.29 17.29 7.74 17.29 17.29zm273.61-100.7c0 9.55-7.74 17.29-17.29 17.29s-17.29-7.74-17.29-17.29 7.74-17.29 17.29-17.29 17.29 7.74 17.29 17.29zm-14.25 96.63c0 9.55-7.74 17.29-17.29 17.29s-17.29-7.74-17.29-17.29 7.74-17.29 17.29-17.29 17.29 7.74 17.29 17.29z"/></svg>